<?xml version="1.0" encoding="UTF-8"?>
<svg version="1.1" xmlns="http://www.w3.org/2000/svg" width="500" height="500">
<path d="M0 0 C4.42910272 -0.04973511 8.85805397 -0.08587704 13.28735352 -0.10986328 C14.79161413 -0.11987124 16.29585553 -0.1334818 17.80004883 -0.15087891 C19.97221643 -0.17535809 22.14412504 -0.18653523 24.31640625 -0.1953125 C25.62037354 -0.20578613 26.92434082 -0.21625977 28.26782227 -0.22705078 C32.77366923 0.04706694 37.0124648 0.7412277 40.875 3.1875 C42.73158416 6.17866337 43 8.50205272 43 12 C40.49500274 15.20082983 38.8617926 16.7127358 35 18 C35.78375 18.45375 36.5675 18.9075 37.375 19.375 C41.7260274 22.06849315 41.7260274 22.06849315 42.625 25.125 C42.74875 25.74375 42.8725 26.3625 43 27 C43.99 26.67 44.98 26.34 46 26 C46.28027248 29.64354222 46.44312908 32.177046 44.6875 35.4375 C40.421267 37.91786802 35.81320322 37.78568464 31 37 C28.65625 35.47265625 28.65625 35.47265625 27 34 C26.67 34.33 26.34 34.66 26 35 C24.07332493 35.08748207 22.14348139 35.10697334 20.21484375 35.09765625 C18.46010742 35.09282227 18.46010742 35.09282227 16.66992188 35.08789062 C14.82237305 35.07532227 14.82237305 35.07532227 12.9375 35.0625 C11.08415039 35.05573242 11.08415039 35.05573242 9.19335938 35.04882812 C6.12885883 35.03699608 3.06445279 35.02051173 0 35 C0 34.34 0 33.68 0 33 C1.32 33 2.64 33 4 33 C4 23.1 4 13.2 4 3 C2.68 3 1.36 3 0 3 C0 2.01 0 1.02 0 0 Z M22 3 C22 7.29 22 11.58 22 16 C23.32 15.34 24.64 14.68 26 14 C26 11.03 26 8.06 26 5 C24.68 4.34 23.36 3.68 22 3 Z M22 19 C22 23.62 22 28.24 22 33 C23.32 33 24.64 33 26 33 C25.9131252 31.04082341 25.80495488 29.08258129 25.6875 27.125 C25.62949219 26.03445313 25.57148438 24.94390625 25.51171875 23.8203125 C25.34285156 22.88960938 25.17398438 21.95890625 25 21 C24.01 20.34 23.02 19.68 22 19 Z " fill="#00BBD3" transform="translate(228,273)"/>
<path d="M0 0 C0.66 -0.66 1.32 -1.32 2 -2 C3.32 -2 4.64 -2 6 -2 C6 1.63 6 5.26 6 9 C3 9 3 9 0.625 6.6875 C-0.24125 5.800625 -1.1075 4.91375 -2 4 C-6.62588712 0.1671221 -11.28425167 0.70033941 -17 1 C-17 1.99 -17 2.98 -17 4 C-16.24976563 4.15855469 -15.49953125 4.31710938 -14.7265625 4.48046875 C2.62376238 8.43564356 2.62376238 8.43564356 7 15 C7.76041819 20.61909022 8.12853409 25.43259154 4.75 30.125 C-1.74773513 34.55527395 -7.18950996 34.69059127 -15 34 C-18.5625 32.375 -18.5625 32.375 -21 31 C-23.16666667 31.66666667 -23.16666667 31.66666667 -25 33 C-26.98 33.495 -26.98 33.495 -29 34 C-29 29.38 -29 24.76 -29 20 C-24.77513779 21.05621555 -24.58757344 21.13660718 -22.3125 24.375 C-18.88007691 28.59618698 -15.27838253 30.01372783 -10 31 C-7.59828453 31.19354484 -5.41382696 31.15407406 -3 31 C-3.33 30.01 -3.66 29.02 -4 28 C-8.31961336 26.1150778 -12.6523987 24.81847865 -17.1875 23.5625 C-22.64099126 21.96247415 -25.81983397 19.77024905 -29 15 C-29.67915105 10.34070788 -29.65531553 6.28332624 -27.5 2.0625 C-18.95403273 -4.987923 -9.70802291 -3.77534224 0 0 Z " fill="#00BCD3" transform="translate(263,147)"/>
<path d="M0 0 C19.27071823 0 19.27071823 0 24.7578125 4.4140625 C27.14877559 7.46667576 27.11927267 11.23628467 27 15 C25.53172668 18.37702864 23.58892522 20.45470835 21 23 C21.433125 23.84304688 21.86625 24.68609375 22.3125 25.5546875 C22.869375 26.65039062 23.42625 27.74609375 24 28.875 C24.556875 29.96554687 25.11375 31.05609375 25.6875 32.1796875 C27 35 27 35 27 37 C23.7 37 20.4 37 17 37 C16.40251953 35.71802734 16.40251953 35.71802734 15.79296875 34.41015625 C15.26316406 33.30542969 14.73335938 32.20070313 14.1875 31.0625 C13.66542969 29.96035156 13.14335937 28.85820312 12.60546875 27.72265625 C11.23205279 24.71259223 11.23205279 24.71259223 8 24 C8 28.29 8 32.58 8 37 C5.36 37 2.72 37 0 37 C0 24.79 0 12.58 0 0 Z M8 8 C8 10.64 8 13.28 8 16 C12.0100934 16.17864631 12.0100934 16.17864631 16 16 C16.66 15.34 17.32 14.68 18 14 C17.71016731 10.69316534 17.71016731 10.69316534 16 8 C13.32941149 7.85884839 10.67567762 7.95752893 8 8 Z " fill="#FE9700" transform="translate(294,329)"/>
<path d="M0 0 C2.31 0 4.62 0 7 0 C8.66342837 1.66342837 8.36048097 3.7825709 8.5625 6.0625 C8.64628906 6.98160156 8.73007813 7.90070313 8.81640625 8.84765625 C8.87699219 9.55792969 8.93757813 10.26820313 9 11 C9.92619141 9.80890625 9.92619141 9.80890625 10.87109375 8.59375 C17.55978908 0.39431836 17.55978908 0.39431836 21.66796875 -0.73046875 C24.125 -0.6875 24.125 -0.6875 28 0 C27.44504396 5.83731537 24.04971228 8.03655911 19.8359375 11.71875 C17.77799984 13.81179458 17.77799984 13.81179458 17.91015625 16.3046875 C19.4526449 20.11944437 21.68816626 23.28068398 24.0625 26.625 C24.99719952 27.94607599 25.92587957 29.27143742 26.84765625 30.6015625 C27.26023682 31.18244629 27.67281738 31.76333008 28.09790039 32.36181641 C29 34 29 34 29 37 C25.3975711 37.86369709 22.56296265 38.11848685 19 37 C16.35919745 33.78152189 14.49565786 30.52491084 12.59375 26.84375 C11.80484375 25.43609375 11.80484375 25.43609375 11 24 C10.34 24 9.68 24 9 24 C8.67 28.29 8.34 32.58 8 37 C5.36 37 2.72 37 0 37 C0 24.79 0 12.58 0 0 Z " fill="#FE9700" transform="translate(113,329)"/>
<path d="M0 0 C3.76287533 2.47635867 6.55778666 4.67335997 8 9 C8.98814229 17.99209486 8.98814229 17.99209486 7.0234375 21.984375 C4.79480296 24.74624112 2.41865638 27.02324103 -1 28 C-7.97043478 28.51478261 -7.97043478 28.51478261 -11 27 C-11.33 30.63 -11.66 34.26 -12 38 C-14.64 38 -17.28 38 -20 38 C-20 25.46 -20 12.92 -20 0 C-16.66666667 0 -13.33333333 0 -10 0 C-6.09649995 -1.30116668 -3.99981631 -0.99995408 0 0 Z M-10.875 9.125 C-12.54663625 11.91106042 -12.46376624 13.81988862 -12 17 C-10.48105194 19.09764165 -10.48105194 19.09764165 -8 20 C-4.83668535 19.93154626 -4.83668535 19.93154626 -2 19 C-0.49337903 15.98675805 -0.82229627 13.31713623 -1 10 C-2.87938172 7.70172688 -2.87938172 7.70172688 -5.9375 7.6875 C-8.92260047 7.77302425 -8.92260047 7.77302425 -10.875 9.125 Z " fill="#FE9700" transform="translate(223,339)"/>
<path d="M0 0 C2.76202556 3.51530526 2.37533562 7.72756261 2 12 C1.21320975 16.2915832 0.68073768 18.35329921 -2.5 21.375 C-6.70325853 24.10711804 -10.03574012 24.51768818 -15 24 C-19.17905855 22.42299677 -21.70772617 20.86067171 -24 17 C-25.676194 11.97141801 -25.60642735 7.65969589 -23.8125 2.75 C-21.47914684 -0.79025996 -19.03965822 -3.11614811 -15.125 -4.8125 C-9.00570833 -5.3524375 -4.72808225 -3.84843904 0 0 Z M-13.625 4.5 C-14.07875 4.995 -14.5325 5.49 -15 6 C-12.36 6 -9.72 6 -7 6 C-8.37485532 4.45833358 -8.37485532 4.45833358 -10 3 C-12.12364481 2.77390663 -12.12364481 2.77390663 -13.625 4.5 Z M-16 13 C-15.01 14.485 -15.01 14.485 -14 16 C-10.535 15.505 -10.535 15.505 -7 15 C-7 14.34 -7 13.68 -7 13 C-9.97 13 -12.94 13 -16 13 Z " fill="#FE9700" transform="translate(347,343)"/>
<path d="M0 0 C2.66542647 2.25150142 4.43665877 4.87331754 6 8 C6.29808852 13.06750487 5.87609463 17.2650945 4 22 C-0.29655018 26.18638223 -3.9316174 27.36243783 -9.9375 27.28515625 C-14.10536582 26.70891723 -16.89080228 24.21458467 -19.64453125 21.19921875 C-22.1401339 17.15015739 -21.49909316 12.59439179 -21 8 C-19.30503904 3.80720183 -16.71229518 1.53522598 -13 -1 C-8.45976285 -2.55423056 -4.39156253 -1.74566568 0 0 Z M-9 6 C-9.99 6.99 -10.98 7.98 -12 9 C-9.03 9 -6.06 9 -3 9 C-3.99 8.01 -4.98 7.02 -6 6 C-6.99 6 -7.98 6 -9 6 Z M-12 16 C-12 16.66 -12 17.32 -12 18 C-9.69 18.33 -7.38 18.66 -5 19 C-4.34 18.01 -3.68 17.02 -3 16 C-5.97 16 -8.94 16 -12 16 Z " fill="#FE9600" transform="translate(193,340)"/>
<path d="M0 0 C3.19985305 2.5998806 4.69883332 4.09649995 6 8 C6.29254324 13.07074949 5.87800936 17.26026208 4 22 C-0.51793828 26.29204136 -3.60529272 27.35937726 -9.6796875 27.28125 C-14.27460233 26.72429063 -16.9627607 24.21011252 -19.875 20.8125 C-21.94515564 15.63711091 -21.67831592 10.8921444 -19.8125 5.6875 C-17.50000125 2.25862254 -15.10076429 -0.2808587 -11.1171875 -1.64453125 C-7.23142824 -2.29693733 -3.66021043 -1.33751005 0 0 Z M-9 6 C-9.99 6.99 -10.98 7.98 -12 9 C-9.03 9 -6.06 9 -3 9 C-3.99 8.01 -4.98 7.02 -6 6 C-6.99 6 -7.98 6 -9 6 Z M-12 16 C-12 16.66 -12 17.32 -12 18 C-9.69 18.33 -7.38 18.66 -5 19 C-4.34 18.01 -3.68 17.02 -3 16 C-5.97 16 -8.94 16 -12 16 Z " fill="#FE9700" transform="translate(163,340)"/>
<path d="M0 0 C2.2033605 2.2033605 3.01303155 3.12355684 3.17602539 6.21728516 C3.17078857 7.08659668 3.16555176 7.9559082 3.16015625 8.8515625 C3.15693359 9.79257812 3.15371094 10.73359375 3.15039062 11.703125 C3.14201172 12.68796875 3.13363281 13.6728125 3.125 14.6875 C3.12048828 15.68007813 3.11597656 16.67265625 3.11132812 17.6953125 C3.09952145 20.1511016 3.083054 22.60677104 3.0625 25.0625 C0.0625 25.0625 -2.9375 25.0625 -5.9375 25.0625 C-6.5975 25.3925 -7.2575 25.7225 -7.9375 26.0625 C-16.78120258 26.49042109 -16.78120258 26.49042109 -19.9375 24.0625 C-22.10187561 21.38279686 -22.01547856 19.22921214 -21.6875 15.9375 C-20.9375 12.0625 -20.9375 12.0625 -18.9375 10.0625 C-19.5975 9.7325 -20.2575 9.4025 -20.9375 9.0625 C-20.57120166 2.71332873 -20.57120166 2.71332873 -17.625 -0.3125 C-11.77692968 -3.84854252 -5.74570754 -3.78972199 0 0 Z M-10.9375 5.0625 C-11.9275 6.5475 -11.9275 6.5475 -12.9375 8.0625 C-10.2975 8.0625 -7.6575 8.0625 -4.9375 8.0625 C-5.5975 7.0725 -6.2575 6.0825 -6.9375 5.0625 C-8.2575 5.0625 -9.5775 5.0625 -10.9375 5.0625 Z M-11.9375 15.0625 C-12.2675 16.0525 -12.5975 17.0425 -12.9375 18.0625 C-10.9575 18.0625 -8.9775 18.0625 -6.9375 18.0625 C-6.6075 17.0725 -6.2775 16.0825 -5.9375 15.0625 C-7.9175 15.0625 -9.8975 15.0625 -11.9375 15.0625 Z " fill="#FE9700" transform="translate(373.9375,340.9375)"/>
<path d="M0 0 C4.87773605 0.45374289 7.52177888 1.52177888 11 5 C16.19800792 13.72522757 16.2038397 25.0328962 14.50390625 34.87109375 C13.06874421 39.67929199 11.09324293 42.9300678 7 46 C4.65803851 46.92509913 2.47712592 47.46571794 0 48 C-0.495 46.515 -0.495 46.515 -1 45 C-0.51202438 44.58586349 -0.02404877 44.17172699 0.47871399 43.74504089 C3.07643847 40.76523603 2.36258602 36.94170177 2.29296875 33.17578125 C2.28872391 32.31438034 2.28447906 31.45297943 2.28010559 30.56547546 C2.26331248 27.81416569 2.22565956 25.06358838 2.1875 22.3125 C2.17245396 20.4472762 2.15876541 18.58204093 2.14648438 16.71679688 C2.11340693 12.14424902 2.0616206 7.5722487 2 3 C1.01 2.67 0.02 2.34 -1 2 C-0.67 1.34 -0.34 0.68 0 0 Z " fill="#00BCD3" transform="translate(279,203)"/>
<path d="M0 0 C1 1 1 1 1.0625 4.0625 C1.041875 5.031875 1.02125 6.00125 1 7 C1.969375 6.979375 2.93875 6.95875 3.9375 6.9375 C7 7 7 7 8 8 C8.04092937 10.33297433 8.04241723 12.66705225 8 15 C5.69 15 3.38 15 1 15 C1 18.63 1 22.26 1 26 C2.65 26 4.3 26 6 26 C8 28 8 28 8.125 31.125 C8.08375 32.07375 8.0425 33.0225 8 34 C-2.09273402 34.62644556 -2.09273402 34.62644556 -5.625 32.1875 C-8.04812574 28.33252724 -8.11039139 25.26639958 -8.0625 20.8125 C-8.05347656 19.72582031 -8.04445313 18.63914062 -8.03515625 17.51953125 C-8.02355469 16.68808594 -8.01195312 15.85664063 -8 15 C-8.99 15 -9.98 15 -11 15 C-11 12.36 -11 9.72 -11 7 C-9.68 7 -8.36 7 -7 7 C-7 5.02 -7 3.04 -7 1 C-4.51588385 -0.24205807 -2.74800896 -0.14092354 0 0 Z " fill="#FE9C00" transform="translate(270,332)"/>
<path d="M0 0 C2.31 0 4.62 0 7 0 C7 12.21 7 24.42 7 37 C4.69 37 2.38 37 0 37 C0 24.79 0 12.58 0 0 Z " fill="#FE9700" transform="translate(382,329)"/>
<path d="M0 0 C1.134375 0.020625 2.26875 0.04125 3.4375 0.0625 C4.7683911 2.72428221 4.55018993 4.74989396 4.53515625 7.7265625 C4.53193359 8.84804688 4.52871094 9.96953125 4.52539062 11.125 C4.51701172 12.300625 4.50863281 13.47625 4.5 14.6875 C4.49548828 15.87085938 4.49097656 17.05421875 4.48632812 18.2734375 C4.47451467 21.20317507 4.45804258 24.13281272 4.4375 27.0625 C1.4675 27.0625 -1.5025 27.0625 -4.5625 27.0625 C-4.59136537 22.75001391 -4.60925255 18.43755238 -4.625 14.125 C-4.63337891 12.89330078 -4.64175781 11.66160156 -4.65039062 10.39257812 C-4.65361328 9.22275391 -4.65683594 8.05292969 -4.66015625 6.84765625 C-4.66539307 5.76363525 -4.67062988 4.67961426 -4.67602539 3.56274414 C-4.49698686 -0.3803388 -4.09871248 0.07190724 0 0 Z " fill="#FE9400" transform="translate(251.5625,338.9375)"/>
<path d="M0 0 C0.99 0.33 1.98 0.66 3 1 C0.70256368 8.67699672 -2.60702954 15.56312365 -6.25 22.6875 C-6.82903076 23.83202637 -7.40806152 24.97655273 -8.00463867 26.15576172 C-9.14775456 28.41507026 -10.29310893 30.6732479 -11.44091797 32.93017578 C-13.41620447 36.81950438 -15.3673761 40.7205273 -17.3125 44.625 C-18.20833333 46.41666667 -19.10416667 48.20833333 -20 50 C-21.32 49.67 -22.64 49.34 -24 49 C-21.46653784 43.63906897 -18.92866658 38.28025264 -16.38671875 32.92333984 C-15.44326079 30.93443745 -14.5005819 28.94516536 -13.55859375 26.95556641 C-12.1043711 23.8857024 -10.64631287 20.81768495 -9.1875 17.75 C-8.73205811 16.78698975 -8.27661621 15.82397949 -7.80737305 14.83178711 C-5.39053338 9.75931423 -2.86460879 4.83444468 0 0 Z " fill="#00BBD2" transform="translate(228,206)"/>
<path d="M0 0 C3 1.1875 3 1.1875 5 3.1875 C5.56 9.3475 5.56 9.3475 3.75 12.0625 C1.65481378 13.40940543 0.50993518 14.04407513 -2 14.1875 C-5.1875 13.1875 -5.1875 13.1875 -8 11.1875 C-9.125 7.75 -9.125 7.75 -9 4.1875 C-6.28539196 0.6304274 -4.45713 -1.20713938 0 0 Z " fill="#00BBD3" transform="translate(241,231.8125)"/>
<path d="M0 0 C1.9375 1.0625 1.9375 1.0625 3 3 C3.36248449 6.38318857 3.58433618 8.86784865 2 11.9375 C-1.2376473 13.65750013 -4.42792027 13.66976495 -8 13 C-10.45636081 10.92744557 -10.88864581 9.63630966 -11.4375 6.5 C-11 4 -11 4 -9.4375 1.6875 C-6.10654682 -0.61854451 -3.9675271 -0.504958 0 0 Z " fill="#00BCD4" transform="translate(243,216)"/>
<path d="M0 0 C7.59 0 15.18 0 23 0 C23 1.32 23 2.64 23 4 C15.41 4 7.82 4 0 4 C0 2.68 0 1.36 0 0 Z " fill="#00BBD4" transform="translate(251,226)"/>
<path d="M0 0 C6.15234375 -0.09765625 6.15234375 -0.09765625 8 0 C9 1 9 1 9.25 3.9375 C9.1675 4.948125 9.085 5.95875 9 7 C6 9 6 9 3.4375 8.75 C1 8 1 8 -1 6 C-0.625 2.875 -0.625 2.875 0 0 Z " fill="#FE9300" transform="translate(247,329)"/>
</svg>
